<svg width="266" height="311" viewBox="0 0 266 311" fill="none" xmlns="http://www.w3.org/2000/svg">
    <path d="M200.759 306.419L72.3285 302.775C72.3285 302.775 81.995 244.974 50.9799 228.929C29.8395 217.99 11.073 166.879 16.4132 132.109C16.4825 131.644 16.558 131.184 16.64 130.731C19.3478 115.159 27.0811 103.105 41.8612 99.8319C89.6591 89.2574 123.772 97.4589 123.772 97.4589C123.772 97.4589 131.67 97.5597 143.37 99.7563C143.786 99.8319 144.202 99.9137 144.623 100.002C177.748 106.491 238.972 129.592 241.623 211.607C245.269 324.289 200.759 306.419 200.759 306.419Z" fill="#3F3D56"/>
    <path d="M143.37 99.7563C143.156 105.635 141.821 111.476 139.384 117.034C134.333 128.547 125.133 137.34 113.476 141.796C78.5692 155.153 37.8246 141.903 17.2193 127.54C17.1373 127.993 15.5002 136.6 15.4308 137.065C24.5558 143.303 69.2049 149.324 77.675 149.324C90.5344 149.324 102.915 147.191 113.93 142.973C125.901 138.391 135.347 129.359 140.536 117.538C143.011 111.898 144.378 105.969 144.623 100.002C144.202 99.9137 143.786 99.8319 143.37 99.7563Z" fill="#FF74B1"/>
    <path d="M152.867 107.242L132.395 55.7932C132.395 55.7932 156.962 13.6991 137.659 9.02196C118.357 4.34484 98.469 29.4844 98.469 29.4844C98.469 29.4844 61.6184 16.6223 47.5801 27.1458C47.5801 27.1458 24.1829 -5.59407 10.1446 0.836985C-3.89372 7.26804 15.1326 53.6208 15.1326 53.6208C15.1326 53.6208 -13.8375 96.1335 8.3898 120.688C30.6171 145.243 114.262 165.121 152.867 107.242Z" fill="#3F3D56"/>
    <path d="M196.774 275.626C203.744 278.725 211.026 281.887 218.649 281.585C226.271 281.282 234.292 276.376 235.48 268.844C236.093 264.956 234.877 260.785 236.367 257.141C238.371 252.239 244.835 250.348 249.859 252.028C254.884 253.708 258.576 258.04 261.222 262.628C266.174 271.212 268.158 282.477 262.849 290.844C258.246 298.098 249.517 301.376 241.397 304.187C230.58 307.932 218.505 311.648 208.024 307.048C197.483 302.422 191.741 289.056 195.645 278.232" fill="#3F3D56"/>
    <path d="M81.4535 84.1086C81.4535 84.1086 68.8585 79.0732 60.6718 85.3675L70.118 99.8446C70.118 99.8446 81.4535 84.1087 81.4535 84.1086Z" fill="#FF74B1"/>
    <path d="M15.33 150.199L38.6307 274.198C38.6307 274.198 3.36483 310.076 48.7066 309.447C94.0484 308.817 80.8237 285.528 80.8237 285.528L66.3395 177.895" fill="#3F3D56"/>
    <path d="M47.5625 310.362C35.2838 310.362 27.8564 307.548 25.4794 301.992C21.1497 291.871 35.2439 276.437 37.6598 273.898L21.9922 181.193L23.7819 180.891L39.6029 274.503L39.2785 274.834C39.1153 275 22.9944 291.572 27.1491 301.28C29.2827 306.266 36.5177 308.714 48.6945 308.539C65.6203 308.305 76.5353 304.759 80.2592 298.288C83.6126 292.46 80.0699 286.039 80.0336 285.975L79.9481 285.823L79.9241 285.649L69.8481 210.746L71.6476 210.504L81.7014 285.242C82.2975 286.374 85.431 292.916 81.8428 299.175C77.7324 306.344 66.5883 310.106 48.7193 310.354C48.3293 310.359 47.9437 310.362 47.5625 310.362Z" fill="#2F2E41"/>
    <path d="M74.5263 150.199L97.827 274.198C97.827 274.198 62.5611 310.076 107.903 309.447C153.245 308.817 140.02 285.528 140.02 285.528L125.536 177.895" fill="#3F3D56"/>
    <path d="M106.758 310.362C94.4797 310.362 87.0527 307.548 84.6758 301.992C80.35 291.882 94.4118 276.467 96.8482 273.906L87.4884 224.01L89.2728 223.676L98.8063 274.496L98.4744 274.834C98.3113 275 82.1903 291.572 86.3454 301.28C88.4795 306.266 95.7185 308.723 107.89 308.539C124.83 308.304 135.749 304.754 139.464 298.273C142.816 292.426 139.267 286.04 139.231 285.976L139.144 285.823L124.636 178.016L126.436 177.774L140.898 285.242C141.494 286.374 144.627 292.916 141.039 299.175C136.929 306.344 125.784 310.106 107.915 310.354C107.525 310.359 107.14 310.362 106.758 310.362Z" fill="#2F2E41"/>
</svg>