<svg width="202" height="35" viewBox="0 0 202 35" fill="none" xmlns="http://www.w3.org/2000/svg">
    <path d="M5.20663 34.384C3.76663 34.384 2.58263 33.968 1.65463 33.136C0.758625 32.272 0.310625 31.216 0.310625 29.968C0.310625 28.688 0.758625 27.616 1.65463 26.752C2.58263 25.888 3.76663 25.456 5.20663 25.456C6.61463 25.456 7.76663 25.888 8.66263 26.752C9.59063 27.616 10.0546 28.688 10.0546 29.968C10.0546 31.216 9.59063 32.272 8.66263 33.136C7.76663 33.968 6.61463 34.384 5.20663 34.384ZM196.879 34.384C195.439 34.384 194.255 33.968 193.327 33.136C192.431 32.272 191.983 31.216 191.983 29.968C191.983 28.688 192.431 27.616 193.327 26.752C194.255 25.888 195.439 25.456 196.879 25.456C198.287 25.456 199.439 25.888 200.335 26.752C201.263 27.616 201.727 28.688 201.727 29.968C201.727 31.216 201.263 32.272 200.335 33.136C199.439 33.968 198.287 34.384 196.879 34.384Z" fill="#FF74B1"/>
    <path d="M53.0735 0.303999V34H44.8655V13.792L37.3295 34H30.7055L23.1215 13.744V34H14.9135V0.303999H24.6095L34.0655 23.632L43.4255 0.303999H53.0735ZM84.224 20.176C84.224 20.944 84.176 21.744 84.08 22.576H65.504C65.632 24.24 66.16 25.52 67.088 26.416C68.048 27.28 69.216 27.712 70.592 27.712C72.64 27.712 74.064 26.848 74.864 25.12H83.6C83.152 26.88 82.336 28.464 81.152 29.872C80 31.28 78.544 32.384 76.784 33.184C75.024 33.984 73.056 34.384 70.88 34.384C68.256 34.384 65.92 33.824 63.872 32.704C61.824 31.584 60.224 29.984 59.072 27.904C57.92 25.824 57.344 23.392 57.344 20.608C57.344 17.824 57.904 15.392 59.024 13.312C60.176 11.232 61.776 9.632 63.824 8.512C65.872 7.392 68.224 6.832 70.88 6.832C73.472 6.832 75.776 7.376 77.792 8.464C79.808 9.552 81.376 11.104 82.496 13.12C83.648 15.136 84.224 17.488 84.224 20.176ZM75.824 18.016C75.824 16.608 75.344 15.488 74.384 14.656C73.424 13.824 72.224 13.408 70.784 13.408C69.408 13.408 68.24 13.808 67.28 14.608C66.352 15.408 65.776 16.544 65.552 18.016H75.824ZM100.746 34.384C98.1221 34.384 95.7541 33.824 93.6421 32.704C91.5621 31.584 89.9141 29.984 88.6981 27.904C87.5141 25.824 86.9221 23.392 86.9221 20.608C86.9221 17.856 87.5301 15.44 88.7461 13.36C89.9621 11.248 91.6261 9.632 93.7381 8.512C95.8501 7.392 98.2181 6.832 100.842 6.832C103.466 6.832 105.834 7.392 107.946 8.512C110.058 9.632 111.722 11.248 112.938 13.36C114.154 15.44 114.762 17.856 114.762 20.608C114.762 23.36 114.138 25.792 112.89 27.904C111.674 29.984 109.994 31.584 107.85 32.704C105.738 33.824 103.37 34.384 100.746 34.384ZM100.746 27.28C102.314 27.28 103.642 26.704 104.73 25.552C105.85 24.4 106.41 22.752 106.41 20.608C106.41 18.464 105.866 16.816 104.778 15.664C103.722 14.512 102.41 13.936 100.842 13.936C99.2421 13.936 97.9141 14.512 96.8581 15.664C95.8021 16.784 95.2741 18.432 95.2741 20.608C95.2741 22.752 95.7861 24.4 96.8101 25.552C97.8661 26.704 99.1781 27.28 100.746 27.28ZM157.565 7.216L150.317 34H141.245L137.021 16.624L132.653 34H123.629L116.333 7.216H124.541L128.333 26.368L132.845 7.216H141.533L146.093 26.272L149.837 7.216H157.565ZM177.015 6.928C180.151 6.928 182.647 7.952 184.503 10C186.391 12.016 187.335 14.8 187.335 18.352V34H179.175V19.456C179.175 17.664 178.711 16.272 177.783 15.28C176.855 14.288 175.607 13.792 174.039 13.792C172.471 13.792 171.223 14.288 170.295 15.28C169.367 16.272 168.903 17.664 168.903 19.456V34H160.695V7.216H168.903V10.768C169.735 9.584 170.855 8.656 172.263 7.984C173.671 7.28 175.255 6.928 177.015 6.928Z" fill="black"/>
</svg>
